<svg width="34" height="22" viewBox="0 0 34 22" fill="none" xmlns="http://www.w3.org/2000/svg">
<path d="M0.5 4C0.5 2.067 2.067 0.5 4 0.5H30C31.933 0.5 33.5 2.067 33.5 4V18C33.5 19.933 31.933 21.5 30 21.5H4C2.067 21.5 0.5 19.933 0.5 18V4Z" fill="white" stroke="#EEEEEE"/>
<path d="M21.099 5.05579C20.4616 4.31682 19.3092 4 17.835 4H13.5563C13.255 4.00001 12.9984 4.22284 12.9512 4.5255L11.1697 16.0167C11.1343 16.2433 11.3068 16.4485 11.5326 16.4485H14.1741L14.8375 12.1691L14.8169 12.3031C14.8641 12.0007 15.1185 11.7775 15.4197 11.7775H16.6749C19.1408 11.7775 21.0716 10.7589 21.6357 7.81228C21.6524 7.72513 21.6669 7.64031 21.6794 7.55744C21.6083 7.5191 21.6083 7.5191 21.6794 7.55744C21.8474 6.46833 21.6783 5.72698 21.099 5.05579Z" fill="#27346A"/>
<path d="M15.8482 7.1651C15.9204 7.13013 15.9994 7.11201 16.0794 7.11206H19.4337C19.8309 7.11206 20.2014 7.13835 20.54 7.19377C20.6347 7.20913 20.729 7.22747 20.8226 7.24876C20.9553 7.27854 21.0864 7.31499 21.2156 7.35797C21.382 7.4145 21.537 7.48034 21.6795 7.55744C21.8474 6.46791 21.6783 5.72698 21.099 5.05579C20.4612 4.31682 19.3092 4 17.835 4H13.556C13.2547 4 12.9984 4.22306 12.9512 4.5255L11.1697 16.0163C11.1343 16.2432 11.3068 16.4481 11.5322 16.4481H14.1741L15.5504 7.57177C15.5779 7.39466 15.6892 7.24261 15.8482 7.1651Z" fill="#27346A"/>
<path d="M21.6356 7.81221C21.0716 10.7584 19.1408 11.7775 16.6749 11.7775H15.4193C15.1181 11.7775 14.8637 12.0006 14.8169 12.3031L13.9916 17.6239C13.9607 17.8222 14.1115 18.0019 14.3088 18.0019H16.5355C16.799 18.0019 17.0233 17.8069 17.0645 17.5422L17.0862 17.4268L17.5059 14.7218L17.5329 14.5723C17.5741 14.3076 17.7984 14.1127 18.0619 14.1126H18.3951C20.5521 14.1126 22.2411 13.2214 22.7347 10.6438C22.9407 9.56669 22.8341 8.66737 22.2891 8.03569C22.1238 7.84437 21.9185 7.68635 21.6794 7.55737C21.6664 7.64066 21.6524 7.72506 21.6356 7.81221Z" fill="#2790C3"/>
<path d="M21.0891 7.31802C21.0011 7.2919 20.9124 7.26878 20.8229 7.24869C20.7292 7.22774 20.635 7.20953 20.5403 7.19406C20.2014 7.13828 19.8312 7.11194 19.4336 7.11194H16.0796C15.9996 7.11176 15.9205 7.13003 15.8485 7.1654C15.6893 7.24268 15.5778 7.39484 15.5506 7.57207L14.8377 12.1691L14.8171 12.3031C14.864 12.0006 15.1184 11.7775 15.4197 11.7775H16.6753C19.1411 11.7775 21.0719 10.7589 21.6359 7.8122C21.6527 7.72506 21.6668 7.6406 21.6798 7.55736C21.5369 7.48068 21.3823 7.41443 21.2158 7.35827C21.1738 7.3441 21.1316 7.33068 21.0891 7.31802" fill="#1F264F"/>
</svg>
